<svg version="1.0" xmlns="http://www.w3.org/2000/svg"
 width="190.000000pt" height="178.000000pt" viewBox="0 0 190.000000 178.000000"
 preserveAspectRatio="xMidYMid meet">
<g transform="translate(0.000000,178.000000) scale(0.100000,-0.100000)"
fill="#000000" stroke="none">
<path d="M620 1550 c-180 -25 -332 -164 -370 -340 -8 -38 -11 -162 -8 -410 3
-345 4 -357 27 -413 47 -118 158 -220 279 -257 59 -18 93 -20 416 -20 381 0
409 3 506 56 58 31 141 116 171 175 44 88 49 134 49 494 0 360 -4 395 -50 485
-35 69 -125 157 -195 190 -33 16 -90 34 -125 39 -73 12 -614 13 -700 1z m778
-322 l3 -88 -146 0 -145 0 0 -395 0 -395 -90 0 -90 0 0 395 0 395 -110 0 -110
0 0 -395 0 -395 -90 0 -90 0 0 478 c0 263 3 482 7 485 3 4 198 6 432 5 l426
-3 3 -87z"/>
</g>
</svg>